<svg width="124" height="32" viewBox="0 0 124 32" fill="none" xmlns="http://www.w3.org/2000/svg">
<g clip-path="url(#clip0_6667_3890)">
<path d="M43.3386 23.2788C41.8171 23.2788 40.5081 22.9676 39.4114 22.3452C38.3148 21.7228 37.4751 20.8386 36.8922 19.6925C36.3093 18.5564 36.0178 17.2276 36.0178 15.7062C36.0178 14.2045 36.3389 12.8855 36.9811 11.7494C37.6232 10.6034 38.5173 9.71914 39.6634 9.09673C40.8193 8.47432 42.1333 8.16312 43.6053 8.16312C44.3562 8.16312 45.0823 8.24215 45.7838 8.40023C46.4951 8.54842 47.1076 8.75589 47.6214 9.02264L47.325 11.5567C46.1197 11.0035 44.8798 10.7269 43.6053 10.7269C42.0641 10.7269 40.8983 11.1764 40.108 12.0754C39.3176 12.9843 38.9224 14.1798 38.9224 15.6617C38.9224 17.193 39.3077 18.4181 40.0783 19.3369C40.8588 20.2557 41.9801 20.7151 43.4423 20.7151C44.0351 20.7151 44.7019 20.641 45.4429 20.4928V17.8994H43.4423V15.7062H48.0956V22.1674C47.5522 22.4934 46.8656 22.7601 46.0357 22.9676C45.1959 23.1751 44.2969 23.2788 43.3386 23.2788ZM54.9866 23.1899C53.8899 23.1899 52.9415 22.9479 52.1412 22.4638C51.341 21.9797 50.7235 21.3276 50.2888 20.5076C49.864 19.6975 49.6516 18.7984 49.6516 17.8105C49.6516 16.8324 49.864 15.9284 50.2888 15.0986C50.7235 14.2687 51.341 13.6117 52.1412 13.1276C52.9415 12.6435 53.8899 12.4014 54.9866 12.4014C56.0733 12.4014 57.0168 12.6435 57.817 13.1276C58.6272 13.6117 59.2446 14.2687 59.6695 15.0986C60.0943 15.9284 60.3067 16.8324 60.3067 17.8105C60.3067 18.7984 60.0943 19.6975 59.6695 20.5076C59.2446 21.3276 58.6272 21.9797 57.817 22.4638C57.0168 22.9479 56.0733 23.1899 54.9866 23.1899ZM54.9866 21.0707C55.8263 21.0707 56.4833 20.7744 56.9575 20.1816C57.4416 19.5888 57.6837 18.7984 57.6837 17.8105C57.6837 16.8225 57.4416 16.0272 56.9575 15.4246C56.4833 14.8219 55.8263 14.5206 54.9866 14.5206C54.1369 14.5206 53.475 14.8219 53.0008 15.4246C52.5265 16.0272 52.2894 16.8225 52.2894 17.8105C52.2894 18.7984 52.5265 19.5888 53.0008 20.1816C53.475 20.7744 54.1369 21.0707 54.9866 21.0707ZM66.8124 23.1899C65.7157 23.1899 64.7673 22.9479 63.9671 22.4638C63.1668 21.9797 62.5494 21.3276 62.1147 20.5076C61.6898 19.6975 61.4774 18.7984 61.4774 17.8105C61.4774 16.8324 61.6898 15.9284 62.1147 15.0986C62.5494 14.2687 63.1668 13.6117 63.9671 13.1276C64.7673 12.6435 65.7157 12.4014 66.8124 12.4014C67.8991 12.4014 68.8426 12.6435 69.6429 13.1276C70.453 13.6117 71.0705 14.2687 71.4953 15.0986C71.9201 15.9284 72.1325 16.8324 72.1325 17.8105C72.1325 18.7984 71.9201 19.6975 71.4953 20.5076C71.0705 21.3276 70.453 21.9797 69.6429 22.4638C68.8426 22.9479 67.8991 23.1899 66.8124 23.1899ZM66.8124 21.0707C67.6521 21.0707 68.3091 20.7744 68.7833 20.1816C69.2674 19.5888 69.5095 18.7984 69.5095 17.8105C69.5095 16.8225 69.2674 16.0272 68.7833 15.4246C68.3091 14.8219 67.6521 14.5206 66.8124 14.5206C65.9627 14.5206 65.3008 14.8219 64.8266 15.4246C64.3524 16.0272 64.1153 16.8225 64.1153 17.8105C64.1153 18.7984 64.3524 19.5888 64.8266 20.1816C65.3008 20.7744 65.9627 21.0707 66.8124 21.0707ZM80.8166 7.42215H83.3804V22.9824H80.95L80.9204 22.3156C80.5153 22.612 80.0954 22.8293 79.6607 22.9676C79.226 23.1158 78.7123 23.1899 78.1195 23.1899C77.1019 23.1899 76.2325 22.9479 75.5113 22.4638C74.7802 21.9797 74.2319 21.3276 73.8664 20.5076C73.491 19.6975 73.3032 18.7984 73.3032 17.8105C73.3032 16.8324 73.491 15.9334 73.8664 15.1134C74.2319 14.3033 74.7802 13.6561 75.5113 13.172C76.2325 12.6879 77.1019 12.4459 78.1195 12.4459C79.1272 12.4459 80.0263 12.7225 80.8166 13.2758V7.42215ZM78.49 21.0707C79.3001 21.0707 79.9127 20.7793 80.3276 20.1964C80.7327 19.6234 80.9352 18.8281 80.9352 17.8105C80.9352 16.8028 80.7327 16.0075 80.3276 15.4246C79.9127 14.8516 79.3001 14.5651 78.49 14.5651C77.6898 14.5651 77.0624 14.8614 76.6079 15.4542C76.1634 16.047 75.9411 16.8324 75.9411 17.8105C75.9411 18.7984 76.1634 19.5888 76.6079 20.1816C77.0624 20.7744 77.6898 21.0707 78.49 21.0707ZM95.8286 12.4459C96.8166 12.4459 97.6613 12.6879 98.3627 13.172C99.0642 13.6561 99.5977 14.3033 99.9632 15.1134C100.319 15.9334 100.497 16.8324 100.497 17.8105C100.497 18.7984 100.319 19.6975 99.9632 20.5076C99.5977 21.3276 99.0642 21.9797 98.3627 22.4638C97.6613 22.9479 96.8166 23.1899 95.8286 23.1899C94.7419 23.1899 93.7539 22.8935 92.8647 22.3007L92.8203 22.9824H90.4196V7.42215H92.9833V13.3795C93.8329 12.7571 94.7814 12.4459 95.8286 12.4459ZM95.4581 21.0707C96.2188 21.0707 96.8116 20.7744 97.2364 20.1816C97.6514 19.5888 97.8589 18.7984 97.8589 17.8105C97.8589 16.8324 97.6514 16.047 97.2364 15.4542C96.8116 14.8614 96.2188 14.5651 95.4581 14.5651C94.5887 14.5651 93.9367 14.8516 93.502 15.4246C93.0772 16.0075 92.8647 16.8028 92.8647 17.8105C92.8647 18.8281 93.0772 19.6234 93.502 20.1964C93.9367 20.7793 94.5887 21.0707 95.4581 21.0707ZM106.988 23.1899C105.901 23.1899 104.957 22.9479 104.157 22.4638C103.347 21.9797 102.729 21.3276 102.305 20.5076C101.88 19.6975 101.667 18.7984 101.667 17.8105C101.667 16.8324 101.88 15.9284 102.305 15.0986C102.729 14.2687 103.347 13.6117 104.157 13.1276C104.957 12.6435 105.901 12.4014 106.988 12.4014C108.084 12.4014 109.033 12.6435 109.833 13.1276C110.633 13.6117 111.251 14.2687 111.685 15.0986C112.11 15.9284 112.323 16.8324 112.323 17.8105C112.323 18.7984 112.11 19.6975 111.685 20.5076C111.251 21.3276 110.633 21.9797 109.833 22.4638C109.033 22.9479 108.084 23.1899 106.988 23.1899ZM106.988 21.0707C107.837 21.0707 108.499 20.7744 108.973 20.1816C109.448 19.5888 109.685 18.7984 109.685 17.8105C109.685 16.8225 109.448 16.0272 108.973 15.4246C108.499 14.8219 107.837 14.5206 106.988 14.5206C106.148 14.5206 105.491 14.8219 105.017 15.4246C104.532 16.0272 104.29 16.8225 104.29 17.8105C104.29 18.7984 104.532 19.5888 105.017 20.1816C105.491 20.7744 106.148 21.0707 106.988 21.0707ZM114.946 28.0062L117.243 22.3007L112.93 12.6089H115.79L118.443 19.2924L121.14 12.6089H124L117.509 28.0062H114.946Z" fill="#111827"/>
<path d="M10.7133 6.64441C10.7133 6.87555 10.8051 7.09723 10.9686 7.26068C11.132 7.42412 11.3537 7.51594 11.5848 7.51594C11.816 7.51594 12.0377 7.42412 12.2011 7.26068C12.3646 7.09723 12.4564 6.87555 12.4564 6.64441C12.4564 6.41326 12.3646 6.19158 12.2011 6.02814C12.0377 5.86469 11.816 5.77287 11.5848 5.77287C11.3537 5.77287 11.132 5.86469 10.9686 6.02814C10.8051 6.19158 10.7133 6.41326 10.7133 6.64441ZM12.55 7.82162C12.55 8.05276 12.6418 8.27444 12.8053 8.43789C12.9687 8.60133 13.1904 8.69316 13.4215 8.69316C13.6527 8.69316 13.8743 8.60133 14.0378 8.43789C14.2012 8.27444 14.2931 8.05276 14.2931 7.82162C14.2931 7.59047 14.2012 7.36879 14.0378 7.20535C13.8743 7.0419 13.6527 6.95008 13.4215 6.95008C13.1904 6.95008 12.9687 7.0419 12.8053 7.20535C12.6418 7.36879 12.55 7.59047 12.55 7.82162ZM8.95639 17.0953C9.6554 17.3019 10.4127 17.262 11.2281 16.9763C11.3243 15.5209 11.0264 14.376 10.4876 14.3006C9.89632 14.2175 9.22862 15.4514 8.95639 17.0953ZM24.2433 23.2311C24.8817 24.0676 25.3754 25.1967 25.6522 26.4971C26.5997 25.7223 27.7476 25.2688 28.9848 25.2688C29.4379 25.2688 29.8796 25.3298 30.3034 25.4452C27.9068 26.0967 26.0678 28.4861 25.7758 31.438H8.34307C8.13144 30.6108 8.02536 29.7601 8.02735 28.9063C8.02735 27.0811 8.49632 25.4142 9.26915 24.1437C8.76821 22.4161 8.48808 20.4842 8.48808 18.4458C8.48808 17.9953 8.50159 17.5497 8.52862 17.1104C5.05796 16.3185 2.42176 14.4057 1.68847 12.0549C1.43523 12.0235 1.19075 11.9421 0.969251 11.8154C0.747753 11.6886 0.553656 11.5192 0.398243 11.3168C0.242831 11.1144 0.129205 10.8831 0.0639715 10.6364C-0.0012622 10.3897 -0.016802 10.1325 0.0182556 9.87969C0.0533133 9.62692 0.138269 9.38365 0.268183 9.16401C0.398097 8.94437 0.570378 8.75275 0.775009 8.60029C0.97964 8.44782 1.21254 8.33756 1.46016 8.2759C1.70779 8.21425 1.9652 8.20244 2.21743 8.24116C3.76837 5.7236 7.60913 3.94197 12.1018 3.94197C13.4263 3.94197 14.6938 4.09686 15.8628 4.37963C15.9959 2.19197 16.5117 0.561935 17.1267 0.561935C17.8234 0.561935 18.3919 2.65171 18.4232 5.27407L18.5468 5.33339C19.5569 3.20769 20.7516 1.76386 21.3461 2.01631C21.9795 2.28524 21.701 4.38292 20.7338 6.77327C21.469 7.42713 22.0263 8.16832 22.3608 8.96752C23.8577 11.3822 24.7851 14.7372 24.7851 18.4462C24.7851 20.1326 24.5933 21.7461 24.2433 23.2311Z" fill="#4F46E5"/>
</g>
<defs>
<clipPath id="clip0_6667_3890">
<rect width="124" height="32" fill="white"/>
</clipPath>
</defs>
</svg>
